<svg width="182" height="61" viewBox="0 0 182 61" fill="none" xmlns="http://www.w3.org/2000/svg">
<path d="M1 50.5906C1 53.8913 11.9282 53.5212 18.7552 52.7946C19.7557 52.6881 20.4934 51.8396 20.5593 50.8355C21.0703 43.0509 25.0274 30.7366 38 32.5898C50.3926 34.3602 53.5131 44.0971 53.604 50.3557C53.6213 51.5501 54.5471 52.5906 55.7416 52.5906H124.951C126.074 52.5906 126.972 51.665 127.018 50.5423C127.313 43.3712 130.155 32.2268 142.5 32.5898C159.5 33.0898 156.5 49.0891 159.5 51.5898C162.5 54.0906 176.5 54.0898 179 50.5906C181.5 47.0913 182 16.0898 176.5 17.5898C172.677 18.6324 166.816 17.4859 163.377 16.5114C162.549 16.2767 161.654 15.6248 160.924 15.1685C158.247 13.4949 150.022 9.60612 130.284 2.19721C130.1 2.12789 129.897 2.08403 129.7 2.07153L129.19 2.03912C98.2854 0.075237 77.8782 -1.22157 42.9718 18.8189C42.6673 18.9937 42.3074 19.0901 41.9563 19.092C15.3122 19.2367 3.79887 30.0005 1.15605 35.7332C1.04668 35.9705 1 36.2231 1 36.4844V50.5906Z" stroke="white" stroke-width="0.75"/>
<circle cx="37" cy="47.5898" r="12.125" stroke="white" stroke-width="0.75"/>
<circle cx="143" cy="47.5898" r="12.125" stroke="white" stroke-width="0.75"/>
</svg>
