<svg width="53" height="111" viewBox="0 0 53 111" fill="none" xmlns="http://www.w3.org/2000/svg">
<path d="M14.7891 38V11.5H19.7891V37.5L36.7891 36.5V10H40.7891V36" stroke="white" stroke-width="0.75"/>
<path d="M23.7882 7.00008C23.1466 7.32087 21.819 9.16386 20.8885 10.5689C20.5077 11.1439 19.8693 11.5001 19.1797 11.5001H15.2593C14.9488 11.5001 14.6349 11.4318 14.4151 11.2125C14.1077 10.9058 13.7274 10.367 13.4441 9.53236C13.3275 9.18878 13.1262 8.85863 13.0764 8.49922C12.8432 6.81546 14.9594 2.44323 16.2891 2C17.7891 1.5 37.2882 1 38.7882 1C39.7928 1 40.8675 2.1681 41.4842 3.03745C41.694 3.3331 41.7882 3.69148 41.7882 4.05397V8C41.7882 9.10457 40.8929 10 39.7883 10H36.2882C35.7882 10 34.2882 7.00008 34.2882 6.50008C34.2882 6.00008 24.7882 6.50008 23.7882 7.00008Z" stroke="white" stroke-width="0.75"/>
<path d="M51.7891 40.5001L16.7891 44.0001V110.5L48.2991 106.449C50.2947 106.192 51.7891 104.493 51.7891 102.481V40.5001ZM51.7891 40.5001C50.5891 36.9001 46.9557 35.176 45.2891 35.5094L6.78906 39.0094" stroke="white" stroke-width="0.75"/>
<path d="M6.2875 38.9998C3.4875 38.5998 1.7875 42.1664 1.2875 43.9998V102.5C0.620833 102.833 0.6875 104.5 6.2875 108.5C13.0875 112.1 15.7875 110 16.2875 108.5C16.4542 88.1667 16.6875 46.8 16.2875 43.9998C15.7875 40.4996 9.7875 39.4998 6.2875 38.9998Z" stroke="white" stroke-width="0.75"/>
</svg>
